<?xml version="1.0" encoding="utf-8"?>
<!-- Uploaded to: SVG Repo, www.svgrepo.com, Generator: SVG Repo Mixer Tools -->
<svg width="800px" height="800px" viewBox="0 0 1024 1024" class="icon"  version="1.1" xmlns="http://www.w3.org/2000/svg"><path d="M256.1599 959.368395a63.960025 63.960025 0 0 0 63.960025 63.960025h575.640225a63.960025 63.960025 0 0 0 63.960025-63.960025v-799.500313H256.1599v799.500313z" fill="#E29460" /><path d="M895.76015 991.348407H320.119925a63.960025 63.960025 0 0 1-63.960025-63.960025v31.980013a63.960025 63.960025 0 0 0 63.960025 63.960025h575.640225a63.960025 63.960025 0 0 0 63.960025-63.960025v-31.980013a63.960025 63.960025 0 0 1-63.960025 63.960025z" fill="" /><path d="M256.1599 351.748157v-95.940037H64.279825a63.960025 63.960025 0 0 0-63.960025 63.960025v191.880075a255.8401 255.8401 0 0 0 255.8401 255.8401v-95.940038a159.900062 159.900062 0 0 1-159.900062-159.900062v-159.900063h159.900062z" fill="#434854" /><path d="M639.92005 287.788132h-63.960025a31.980012 31.980012 0 0 0-31.980013 31.980013v543.660212a31.980012 31.980012 0 0 0 31.980013 31.980013h63.960025a31.980012 31.980012 0 0 0 31.980012-31.980013v-543.660212a31.980012 31.980012 0 0 0-31.980012-31.980013zM831.800125 287.788132h-63.960025a31.980012 31.980012 0 0 0-31.980013 31.980013v543.660212a31.980012 31.980012 0 0 0 31.980013 31.980013h63.960025a31.980012 31.980012 0 0 0 31.980012-31.980013v-543.660212a31.980012 31.980012 0 0 0-31.980012-31.980013zM448.039975 287.788132h-63.960025a31.980012 31.980012 0 0 0-31.980012 31.980013v543.660212a31.980012 31.980012 0 0 0 31.980012 31.980013h63.960025a31.980012 31.980012 0 0 0 31.980013-31.980013v-543.660212a31.980012 31.980012 0 0 0-31.980013-31.980013z" fill="#FFFFFF" /><path d="M927.740162 31.948032a63.640225 63.640225 0 0 0-44.260337 17.940787A95.524297 95.524297 0 0 0 799.820112-0.03198a95.748157 95.748157 0 0 0-92.262336 70.995628A95.268457 95.268457 0 0 0 671.900062 63.928045c-24.97639 0-47.522299 9.817864-64.631605 25.45609A63.768145 63.768145 0 0 0 543.980012 31.948032c-7.611243 0-14.806746 1.567021-21.586508 3.997502A95.460337 95.460337 0 0 0 448.039975-0.03198a95.844097 95.844097 0 0 0-93.285696 74.257589A63.768145 63.768145 0 0 0 320.119925 63.928045c-25.96777 0-48.193879 15.510306-58.203623 37.736415A63.864085 63.864085 0 0 0 224.179888 159.868082v31.980013a31.980012 31.980012 0 1 0 63.960025 0v-31.980013h31.980012a31.980012 31.980012 0 1 0 63.960025 0h40.838476c11.097064 19.060087 31.468332 31.980012 55.101562 31.980013 11.704685 0 22.545909-3.357901 31.980012-8.858464v104.798501a31.980012 31.980012 0 1 0 63.960025 0v-127.92005h31.980012a63.960025 63.960025 0 0 0 63.960025 63.960025 63.736165 63.736165 0 0 0 63.288445-57.404122A95.300437 95.300437 0 0 0 799.820112 191.848095c28.334291 0 53.502561-12.504185 71.059588-31.980013H927.740162v255.8401a31.980012 31.980012 0 1 0 63.960025 0v-319.800125a63.960025 63.960025 0 0 0-63.960025-63.960025z" fill="#EAEAEA" /><path d="M959.720175 447.688195a31.980012 31.980012 0 0 1-31.980013-31.980013v31.980013a31.980012 31.980012 0 1 0 63.960025 0v-31.980013a31.980012 31.980012 0 0 1-31.980012 31.980013zM256.1599 223.828107a31.980012 31.980012 0 0 1-31.980012-31.980012v31.980012a31.980012 31.980012 0 1 0 63.960025 0v-31.980012a31.980012 31.980012 0 0 1-31.980013 31.980012zM512 182.989631a63.224485 63.224485 0 0 1-31.980012 8.858464 63.704185 63.704185 0 0 1-55.101562-31.980013H384.07995a31.980012 31.980012 0 1 1-63.960025 0H288.139913v31.980013h31.980012a31.980012 31.980012 0 1 0 63.960025 0h40.838476c11.097064 19.060087 31.468332 31.980012 55.101562 31.980012 11.704685 0 22.545909-3.357901 31.980012-8.858463v-31.980013zM927.740162 159.868082h-56.860462c-17.557027 19.475828-42.725297 31.980012-71.059588 31.980013a95.492317 95.492317 0 0 1-64.631605-25.42411A63.736165 63.736165 0 0 1 671.900062 223.828107a63.960025 63.960025 0 0 1-63.960025-63.960025h-31.980012v31.980013h31.980012a63.960025 63.960025 0 0 0 63.960025 63.960025 63.736165 63.736165 0 0 0 63.288445-57.404122A95.300437 95.300437 0 0 0 799.820112 223.828107c28.334291 0 53.502561-12.504185 71.059588-31.980012H927.740162v-31.980013zM543.980012 319.768145a31.980012 31.980012 0 0 1-31.980012-31.980013v31.980013a31.980012 31.980012 0 1 0 63.960025 0v-31.980013a31.980012 31.980012 0 0 1-31.980013 31.980013z" fill="" /><path d="M224.179888 255.80812h31.980012v95.940037H224.179888zM224.179888 765.281699c10.489444 1.311181 21.106808 2.206621 31.980012 2.206621v-95.940038c-10.969144 0-21.650468-1.1193-31.980012-3.229981v96.963398z" fill="" /></svg>